<svg width="71" height="70" viewBox="0 0 71 70" fill="none" xmlns="http://www.w3.org/2000/svg">
<path d="M24.9964 64.8102C24.9388 65.1346 25.0157 65.4231 25.2271 65.6759C25.4385 65.9286 25.7357 66.1129 26.1189 66.2287C26.3991 66.3134 26.6579 66.3422 26.8955 66.3151C27.1309 66.2873 27.3313 66.2119 27.4967 66.0888C27.66 65.965 27.7722 65.8022 27.8332 65.6003C27.8843 65.4314 27.888 65.274 27.8444 65.1282C27.7981 64.9838 27.7233 64.8521 27.6198 64.7332C27.5158 64.6163 27.4015 64.5109 27.277 64.4171C27.1518 64.3253 27.0352 64.2462 26.9271 64.1798L26.3367 63.8124C26.185 63.7194 26.0197 63.6042 25.8408 63.4669C25.6599 63.3291 25.4967 63.1662 25.3512 62.9783C25.2029 62.7918 25.0989 62.5783 25.039 62.3376C24.9791 62.0969 24.994 61.8282 25.0836 61.5316C25.187 61.1896 25.37 60.9077 25.6327 60.6858C25.8933 60.4633 26.2192 60.3224 26.6104 60.263C26.9995 60.203 27.4371 60.2465 27.9233 60.3935C28.3765 60.5305 28.7468 60.7222 29.0343 60.9688C29.3197 61.2147 29.5176 61.4971 29.6281 61.816C29.7364 62.1343 29.7507 62.4702 29.6708 62.8238L28.8797 62.5847C28.9314 62.3395 28.9108 62.1174 28.818 61.9185C28.7226 61.721 28.5782 61.5515 28.385 61.4099C28.189 61.2697 27.9654 61.1616 27.7141 61.0857C27.4215 60.9972 27.1445 60.9652 26.8831 60.9896C26.6211 61.0161 26.3962 61.0942 26.2086 61.2241C26.0203 61.3561 25.8913 61.5374 25.8215 61.7681C25.758 61.9783 25.765 62.167 25.8426 62.3343C25.9202 62.5017 26.0423 62.6555 26.209 62.7958C26.3756 62.9361 26.5609 63.0708 26.7647 63.1999L27.4761 63.6578C27.9276 63.9494 28.2577 64.2706 28.4664 64.6215C28.6751 64.9723 28.715 65.361 28.5861 65.7874C28.4789 66.1417 28.2897 66.4218 28.0184 66.6276C27.7445 66.8348 27.4226 66.9623 27.0529 67.0102C26.6805 67.0595 26.2925 67.0231 25.8887 66.9011C25.4808 66.7778 25.1403 66.595 24.8673 66.3529C24.5936 66.1128 24.4021 65.839 24.2927 65.5317C24.1812 65.2237 24.1685 64.9085 24.2547 64.586L24.9964 64.8102Z" fill="#EEEEEE"/>
<path d="M21.1726 57.3069C21.5753 57.564 21.866 57.8746 22.0446 58.2388C22.2202 58.6036 22.2845 58.997 22.2374 59.4188C22.1873 59.8413 22.0256 60.2666 21.7524 60.6947C21.4791 61.1229 21.1603 61.4504 20.7959 61.6774C20.4285 61.905 20.0457 62.0207 19.6476 62.0245C19.2465 62.0289 18.8572 61.9107 18.4799 61.6699C18.2622 61.5309 18.0704 61.3574 17.9045 61.1494C17.7385 60.9414 17.6206 60.7001 17.5506 60.4257C17.4795 60.1531 17.4774 59.8504 17.5442 59.5178C17.611 59.1851 17.7688 58.8237 18.0178 58.4337L18.1914 58.1616L21.4133 60.2179L21.059 60.773L18.4902 59.1335C18.3397 59.3694 18.2526 59.6099 18.2288 59.8552C18.2032 60.0993 18.2424 60.3298 18.3465 60.5468C18.4487 60.7627 18.6159 60.9448 18.8481 61.093C19.1039 61.2562 19.3657 61.334 19.6336 61.3262C19.8986 61.3192 20.1452 61.2468 20.3735 61.1091C20.6018 60.9714 20.7895 60.7874 20.9365 60.557L21.1727 60.1869C21.3742 59.8712 21.4905 59.5689 21.5218 59.2799C21.5501 58.9916 21.5027 58.7278 21.3797 58.4885C21.2556 58.2509 21.0638 58.0494 20.8044 57.8838C20.6357 57.7761 20.4682 57.7025 20.3021 57.6628C20.1329 57.6238 19.9678 57.6205 19.8067 57.653C19.6444 57.6872 19.4897 57.7596 19.3426 57.87L18.8334 57.2998C19.033 57.1311 19.2608 57.0161 19.5169 56.9549C19.7719 56.8955 20.0411 56.8937 20.3246 56.9495C20.6069 57.0072 20.8896 57.1263 21.1726 57.3069Z" fill="#EEEEEE"/>
<path d="M15.9791 52.9037C16.3019 53.2559 16.5027 53.631 16.5813 54.0289C16.657 54.4267 16.6176 54.8233 16.4633 55.2187C16.306 55.614 16.0402 55.9833 15.6658 56.3265C15.2914 56.6697 14.8988 56.9039 14.4882 57.0293C14.0745 57.1545 13.6749 57.1676 13.2893 57.0685C12.9006 56.9694 12.555 56.7548 12.2525 56.4248C12.078 56.2345 11.9374 56.0174 11.8307 55.7736C11.724 55.5298 11.6723 55.2663 11.6754 54.9832C11.677 54.7014 11.753 54.4085 11.9033 54.1043C12.0536 53.8001 12.2993 53.4916 12.6404 53.179L12.8784 52.9608L15.4611 55.7784L14.9757 56.2234L12.9164 53.9769C12.7102 54.166 12.564 54.3759 12.4778 54.6068C12.3901 54.836 12.3686 55.0689 12.4131 55.3054C12.4562 55.5403 12.5709 55.7593 12.757 55.9624C12.962 56.1861 13.195 56.3287 13.4558 56.3903C13.7136 56.4518 13.9706 56.4455 14.2266 56.3713C14.4827 56.2971 14.7115 56.1677 14.913 55.983L15.2366 55.6863C15.5127 55.4333 15.703 55.1712 15.8077 54.9001C15.9094 54.6288 15.9317 54.3617 15.8746 54.0987C15.8159 53.8372 15.6825 53.593 15.4746 53.3662C15.3393 53.2186 15.1966 53.1043 15.0462 53.0231C14.8929 52.9418 14.7342 52.896 14.5701 52.8859C14.4045 52.8771 14.2364 52.9071 14.0658 52.9759L13.7208 52.2937C13.9571 52.1821 14.2069 52.1298 14.4702 52.1367C14.7318 52.145 14.9924 52.2127 15.2519 52.3397C15.5098 52.4682 15.7522 52.6562 15.9791 52.9037Z" fill="#EEEEEE"/>
<path d="M10.8893 45.4374L6.10833 46.7524L5.91313 46.0428L6.66015 45.8373L6.64303 45.775C6.3604 45.7456 6.118 45.6393 5.91582 45.4561C5.71157 45.2734 5.56664 45.0265 5.48102 44.7152C5.39427 44.3998 5.39366 44.1176 5.47919 43.8687C5.56208 43.6182 5.71487 43.3987 5.93757 43.2102L5.92387 43.1604C5.64326 43.1059 5.39666 42.9762 5.18405 42.7713C4.96937 42.567 4.81494 42.2936 4.72077 41.9512C4.60319 41.5238 4.64086 41.1373 4.83377 40.7919C5.02461 40.447 5.4012 40.1972 5.96355 40.0425L9.1633 39.1624L9.36535 39.897L6.1656 40.7771C5.81283 40.8741 5.58725 41.0399 5.48886 41.2746C5.39046 41.5092 5.37722 41.7573 5.44913 42.0188C5.54159 42.3549 5.7149 42.5874 5.96906 42.7161C6.22114 42.8454 6.50177 42.8676 6.81095 42.7825L9.92355 41.9264L10.129 42.6734L6.85457 43.5741C6.58274 43.6488 6.38808 43.7972 6.27059 44.0193C6.15102 44.2419 6.12948 44.4922 6.20596 44.7703C6.25847 44.9612 6.3584 45.1257 6.50573 45.2637C6.6525 45.3997 6.83014 45.4937 7.03863 45.5457C7.24449 45.5962 7.46465 45.5892 7.69914 45.5247L10.6872 44.7028L10.8893 45.4374Z" fill="#EEEEEE"/>
<path d="M10.8986 35.7794C10.8933 35.9084 10.8779 36.023 10.8524 36.1232C10.8289 36.2235 10.8067 36.2926 10.7858 36.3305L10.1227 36.1098C10.1775 35.9268 10.2013 35.7641 10.1942 35.6216C10.187 35.4792 10.1286 35.3508 10.0191 35.2366C9.91181 35.1202 9.73423 35.0107 9.48637 34.9081L9.10504 34.7505L4.05071 36.3813L4.08409 35.5556L8.08747 34.3475L8.08955 34.2959L4.19676 32.7687L4.23014 31.9429L9.82211 34.2755C10.0742 34.3805 10.2812 34.5062 10.4433 34.6528C10.6076 34.7994 10.7268 34.9669 10.801 35.1551C10.8754 35.3412 10.9079 35.5493 10.8986 35.7794Z" fill="#EEEEEE"/>
<path d="M11.4309 24.2585L6.36265 23.1712L6.75143 22.4714L10.5906 23.378L10.6156 23.3329L7.81118 20.5637L8.20623 19.8525L12.0215 20.7755L12.0466 20.7304L9.25971 17.9562L9.64849 17.2563L13.2494 20.9849L12.8857 21.6396L9.02901 20.738L8.99139 20.8057L11.7946 23.6038L11.4309 24.2585Z" fill="#EEEEEE"/>
<path d="M17.329 16.3227C17.0029 16.6295 16.6439 16.821 16.2518 16.8973C15.8613 16.9722 15.4658 16.935 15.0654 16.7858C14.6665 16.6351 14.2916 16.3732 13.9406 16.0001C13.5867 15.6239 13.3459 15.2314 13.2183 14.8225C13.0923 14.4122 13.0786 14.0144 13.1771 13.6292C13.2772 13.2424 13.4903 12.8957 13.8163 12.589C14.1423 12.2823 14.5006 12.0915 14.8911 12.0166C15.2832 11.9402 15.6794 11.9782 16.0798 12.1305C16.4817 12.2813 16.8596 12.5448 17.2135 12.921C17.5645 13.2941 17.8022 13.685 17.9268 14.0938C18.0529 14.5011 18.0659 14.8981 17.9658 15.2848C17.8673 15.67 17.655 16.016 17.329 16.3227ZM16.86 15.8243C17.1077 15.5913 17.2517 15.3361 17.2922 15.0587C17.3326 14.7813 17.2939 14.503 17.176 14.2239C17.0582 13.9447 16.8857 13.6844 16.6586 13.443C16.4315 13.2016 16.1815 13.0128 15.9086 12.8766C15.6356 12.7404 15.3588 12.6832 15.0779 12.7051C14.7971 12.727 14.5329 12.8545 14.2852 13.0875C14.0376 13.3205 13.8943 13.5764 13.8553 13.8554C13.8164 14.1343 13.8565 14.4142 13.9759 14.6949C14.0952 14.9756 14.2684 15.2367 14.4955 15.4781C14.7226 15.7195 14.9719 15.9075 15.2433 16.0422C15.5148 16.1768 15.7902 16.2324 16.0695 16.2089C16.3489 16.1855 16.6124 16.0573 16.86 15.8243Z" fill="#EEEEEE"/>
<path d="M21.3939 13.0149L18.9234 8.71567L19.5616 8.34895L19.9347 8.99831L19.9795 8.97258C19.9356 8.71482 19.9783 8.46072 20.1074 8.21029C20.2365 7.95985 20.4298 7.76065 20.6873 7.61267C20.7358 7.5848 20.797 7.55088 20.8709 7.51093C20.9447 7.47097 21.0014 7.44214 21.0408 7.42443L21.4269 8.09618C21.4012 8.10345 21.3451 8.12454 21.2584 8.15945C21.1726 8.19143 21.0858 8.23261 20.9981 8.28301C20.7891 8.4031 20.6277 8.55418 20.5139 8.73624C20.4009 8.91537 20.3407 9.10878 20.3335 9.31647C20.327 9.52123 20.3796 9.72064 20.4911 9.9147L22.0545 12.6353L21.3939 13.0149Z" fill="#EEEEEE"/>
<path d="M26.0033 8.78655L25.7168 7.88842L25.8651 7.84335L27.2985 5.09979L28.2004 4.82564L26.6686 7.73406L26.6068 7.75283L26.0033 8.78655ZM25.8496 10.7227L23.9268 4.39718L24.6557 4.17561L26.5785 10.5012L25.8496 10.7227ZM28.8641 9.80641L26.2974 8.02235L26.6623 7.35808L29.7907 9.52475L28.8641 9.80641Z" fill="#EEEEEE"/>
<path d="M46.1805 5.95902C46.2431 5.6356 46.1706 5.34591 45.9631 5.08996C45.7556 4.834 45.4612 4.64519 45.0798 4.52353C44.801 4.43457 44.5426 4.40184 44.3047 4.42533C44.0688 4.44948 43.8673 4.52185 43.7 4.64244C43.5348 4.76368 43.4202 4.92477 43.3561 5.1257C43.3025 5.29383 43.2963 5.45113 43.3377 5.59761C43.3818 5.74269 43.4546 5.87549 43.5562 5.99601C43.6585 6.11447 43.7711 6.22158 43.8942 6.31731C44.0179 6.411 44.1333 6.49187 44.2404 6.5599L44.8251 6.93622C44.9754 7.0316 45.1389 7.14928 45.3157 7.28924C45.4944 7.42986 45.6552 7.59521 45.7978 7.78531C45.9432 7.974 46.044 8.18913 46.1002 8.43071C46.1564 8.67228 46.1374 8.94069 46.0432 9.23594C45.9346 9.57629 45.7473 9.85538 45.4813 10.0732C45.2173 10.2917 44.8893 10.4276 44.4973 10.481C44.1073 10.5351 43.6704 10.4849 43.1865 10.3306C42.7355 10.1866 42.3681 9.98925 42.0844 9.73837C41.8028 9.48814 41.6092 9.20274 41.5037 8.88217C41.4002 8.56225 41.3911 8.22614 41.4764 7.87384L42.2637 8.12502C42.2083 8.3694 42.2255 8.59174 42.3152 8.79204C42.4076 8.99095 42.5493 9.16268 42.7404 9.30722C42.9342 9.45037 43.1562 9.56184 43.4063 9.64165C43.6974 9.73453 43.9739 9.77077 44.2357 9.75037C44.4981 9.72792 44.7241 9.6532 44.9137 9.52619C45.104 9.39714 45.2358 9.21779 45.309 8.98815C45.3758 8.77902 45.3716 8.5902 45.2966 8.4217C45.2216 8.25319 45.1018 8.09752 44.9373 7.95467C44.7728 7.81183 44.5897 7.67433 44.3878 7.54218L43.6835 7.07349C43.2365 6.77503 42.9114 6.44879 42.7081 6.09477C42.5048 5.74076 42.4708 5.35154 42.6062 4.92712C42.7187 4.57447 42.9122 4.29734 43.1866 4.09573C43.4637 3.89273 43.7874 3.77011 44.1578 3.72789C44.5309 3.68427 44.9184 3.72657 45.3203 3.85477C45.7262 3.98429 46.0639 4.1722 46.3332 4.4185C46.6031 4.66276 46.7905 4.93939 46.8952 5.2484C47.002 5.55806 47.0098 5.87343 46.9187 6.1945L46.1805 5.95902Z" fill="#EEEEEE"/>
<path d="M49.8894 13.5199C49.4906 13.2567 49.2047 12.9417 49.0317 12.5748C48.8617 12.2073 48.8034 11.8131 48.857 11.392C48.9135 10.9703 49.0816 10.5475 49.3614 10.1236C49.6411 9.69971 49.965 9.37707 50.3328 9.15569C50.7036 8.9337 51.0881 8.82387 51.4863 8.82619C51.8874 8.8279 52.2748 8.95203 52.6484 9.1986C52.8639 9.34085 53.0531 9.51724 53.2158 9.72779C53.3786 9.93833 53.4928 10.1813 53.5586 10.4568C53.6255 10.7305 53.623 11.0331 53.5512 11.3647C53.4793 11.6963 53.3159 12.0552 53.0611 12.4414L52.8832 12.7109L49.6931 10.6056L50.0559 10.0559L52.5993 11.7345C52.7534 11.5009 52.8442 11.2618 52.8718 11.0169C52.9011 10.7732 52.8654 10.5421 52.7647 10.3235C52.6657 10.1061 52.5013 9.92153 52.2714 9.7698C52.0181 9.60266 51.7575 9.52091 51.4895 9.52455C51.2245 9.52757 50.9768 9.59618 50.7464 9.73036C50.5161 9.86455 50.3256 10.0457 50.1751 10.2738L49.9332 10.6403C49.727 10.9528 49.606 11.2533 49.5704 11.5418C49.5377 11.8296 49.581 12.0942 49.7003 12.3353C49.8208 12.5747 50.0095 12.7792 50.2663 12.9487C50.4334 13.0589 50.5997 13.1352 50.7652 13.1774C50.9338 13.219 51.0988 13.2248 51.2604 13.1948C51.4232 13.163 51.579 13.093 51.7277 12.9849L52.2282 13.5627C52.0261 13.7284 51.7965 13.8399 51.5395 13.8972C51.2837 13.9527 51.0145 13.9504 50.7319 13.8902C50.4504 13.8283 50.1696 13.7048 49.8894 13.5199Z" fill="#EEEEEE"/>
<path d="M55.015 18.0017C54.6975 17.6447 54.5025 17.2666 54.43 16.8675C54.3604 16.4686 54.4058 16.0726 54.5661 15.6796C54.7294 15.2867 55.0009 14.9216 55.3805 14.5842C55.7601 14.2467 56.1562 14.0185 56.5686 13.8994C56.9842 13.7805 57.384 13.7736 57.7681 13.8785C58.1552 13.9835 58.4975 14.2034 58.7949 14.5379C58.9664 14.7309 59.1037 14.9501 59.2067 15.1955C59.3096 15.4409 59.3574 15.7051 59.3499 15.9882C59.344 16.2699 59.2636 16.5617 59.1086 16.8636C58.9537 17.1654 58.7033 17.4701 58.3575 17.7775L58.1162 17.992L55.5768 15.1353L56.069 14.6978L58.0936 16.9754C58.3027 16.7895 58.4521 16.5818 58.5419 16.3523C58.633 16.1245 58.6581 15.8919 58.6172 15.6548C58.5777 15.4192 58.4664 15.1985 58.2834 14.9926C58.0818 14.7658 57.851 14.6196 57.5912 14.554C57.3343 14.4886 57.0773 14.4911 56.8201 14.5613C56.563 14.6316 56.3322 14.7575 56.1279 14.9391L55.7998 15.2308C55.5199 15.4796 55.3256 15.7387 55.2168 16.0082C55.111 16.2779 55.0846 16.5447 55.1377 16.8085C55.1924 17.0708 55.322 17.317 55.5265 17.547C55.6594 17.6966 55.8004 17.8132 55.9495 17.8966C56.1016 17.9803 56.2596 18.0284 56.4235 18.0411C56.589 18.0524 56.7575 18.0249 56.9291 17.9588L57.2637 18.6461C57.0256 18.7541 56.7751 18.8026 56.512 18.7917C56.2505 18.7794 55.991 18.7078 55.7335 18.5768C55.4775 18.4443 55.238 18.2527 55.015 18.0017Z" fill="#EEEEEE"/>
<path d="M59.9903 25.5452L64.7908 24.3034L64.9751 25.0159L64.225 25.21L64.2412 25.2725C64.5233 25.3062 64.7641 25.4162 64.9635 25.6025C65.1649 25.7882 65.306 26.0374 65.3869 26.3499C65.4688 26.6666 65.4651 26.9488 65.3758 27.1964C65.2891 27.4456 65.133 27.6627 64.9074 27.8477L64.9204 27.8977C65.2001 27.9565 65.4447 28.09 65.6541 28.2981C65.8657 28.5057 66.0159 28.7814 66.1049 29.1252C66.2159 29.5544 66.1723 29.9402 65.9742 30.2827C65.7781 30.6246 65.3977 30.8686 64.8331 31.0147L61.6203 31.8459L61.4294 31.1083L64.6423 30.2771C64.9965 30.1855 65.2246 30.0231 65.3265 29.79C65.4285 29.5569 65.4455 29.3091 65.3776 29.0466C65.2903 28.709 65.1205 28.4739 64.8684 28.3413C64.6183 28.2082 64.3381 28.1818 64.0276 28.2621L60.9023 29.0706L60.7083 28.3205L63.9961 27.47C64.269 27.3993 64.4659 27.2539 64.5868 27.0337C64.7097 26.8129 64.7351 26.563 64.6629 26.2838C64.6133 26.0921 64.5159 25.9261 64.3707 25.7858C64.226 25.6477 64.0498 25.551 63.8421 25.4958C63.6371 25.4421 63.4168 25.4457 63.1814 25.5066L60.1811 26.2828L59.9903 25.5452Z" fill="#EEEEEE"/>
<path d="M59.8335 35.2019C59.8407 35.0729 59.8578 34.9586 59.8849 34.8588C59.9099 34.7589 59.9331 34.6901 59.9546 34.6525L60.6143 34.8832C60.5567 35.0654 60.5304 35.2278 60.5354 35.3703C60.5404 35.5128 60.5968 35.6421 60.7045 35.758C60.81 35.876 60.9859 35.9882 61.2322 36.0946L61.6111 36.2579L66.6897 34.7045L66.6437 35.5297L62.6224 36.6764L62.6195 36.728L66.4885 38.3145L66.4425 39.1396L60.8868 36.722C60.6364 36.6132 60.4313 36.4843 60.2714 36.3353C60.1095 36.1861 59.9928 36.0169 59.9215 35.8275C59.85 35.6403 59.8207 35.4318 59.8335 35.2019Z" fill="#EEEEEE"/>
<path d="M59.1257 46.713L64.1768 47.8775L63.7774 48.5713L59.9525 47.6061L59.9268 47.6509L62.6886 50.4626L62.2828 51.1676L58.482 50.1865L58.4562 50.2312L61.2004 53.0477L60.801 53.7415L57.2575 49.9583L57.6311 49.3093L61.4736 50.2697L61.5122 50.2026L58.7521 47.362L59.1257 46.713Z" fill="#EEEEEE"/>
<path d="M53.1067 54.558C53.4373 54.2563 53.7993 54.0703 54.1925 53.9999C54.5841 53.931 54.979 53.9743 55.3771 54.1296C55.7736 54.2864 56.1445 54.554 56.4897 54.9323C56.8378 55.3139 57.0726 55.7101 57.1939 56.1208C57.3137 56.5331 57.3213 56.931 57.2169 57.3147C57.1109 57.6998 56.8926 58.0433 56.5619 58.345C56.2312 58.6467 55.8701 58.832 55.4785 58.9009C55.0853 58.9712 54.6897 58.9272 54.2917 58.7689C53.8922 58.6119 53.5183 58.3427 53.1702 57.9611C52.8249 57.5828 52.5932 57.1882 52.4749 56.7776C52.355 56.3684 52.348 55.9713 52.454 55.5861C52.5584 55.2025 52.776 54.8598 53.1067 54.558ZM53.5679 55.0636C53.3168 55.2928 53.1688 55.5457 53.1242 55.8225C53.0795 56.0992 53.114 56.378 53.2275 56.659C53.3411 56.9399 53.5096 57.2028 53.733 57.4476C53.9564 57.6925 54.2035 57.8851 54.4743 58.0254C54.7451 58.1658 55.0211 58.2272 55.3022 58.2096C55.5833 58.192 55.8495 58.0686 56.1006 57.8394C56.3518 57.6102 56.499 57.3565 56.5423 57.0781C56.5855 56.7998 56.5496 56.5194 56.4345 56.2369C56.3195 55.9543 56.1503 55.6907 55.9269 55.4458C55.7035 55.201 55.4571 55.0092 55.1878 54.8704C54.9184 54.7317 54.6439 54.6719 54.3642 54.691C54.0846 54.7102 53.8191 54.8344 53.5679 55.0636Z" fill="#EEEEEE"/>
<path d="M48.9915 57.8033L51.3961 62.1397L50.7524 62.4967L50.3892 61.8417L50.3441 61.8667C50.384 62.1251 50.3375 62.3785 50.2045 62.627C50.0716 62.8754 49.8753 63.0716 49.6155 63.2157C49.5666 63.2428 49.5049 63.2758 49.4305 63.3146C49.356 63.3534 49.2989 63.3814 49.2592 63.3985L48.8835 62.7209C48.9092 62.7141 48.9657 62.6938 49.0528 62.6602C49.1392 62.6296 49.2266 62.5897 49.3151 62.5407C49.5259 62.4238 49.6896 62.2752 49.8061 62.0949C49.9219 61.9175 49.9849 61.725 49.9954 61.5175C50.0049 61.3128 49.9554 61.1126 49.8469 60.9169L48.3252 58.1728L48.9915 57.8033Z" fill="#EEEEEE"/>
<path d="M44.3186 61.9609L44.5913 62.8633L44.4424 62.9061L42.9673 65.6274L42.0613 65.8878L43.6373 63.0031L43.6993 62.9853L44.3186 61.9609ZM44.5018 60.0273L46.3278 66.3815L45.5956 66.5919L43.7696 60.2377L44.5018 60.0273ZM41.4737 60.8975L44.0129 62.7205L43.6378 63.3791L40.5429 61.165L41.4737 60.8975Z" fill="#EEEEEE"/>
</svg>
