<svg width="268" height="500" viewBox="0 0 268 500" fill="none" xmlns="http://www.w3.org/2000/svg">
<path fill-rule="evenodd" clip-rule="evenodd" d="M114 67.9899L34.4265 147.563C26.616 155.374 13.9527 155.374 6.14217 147.563C-1.66832 139.753 -1.66832 127.09 6.14217 119.279L119.279 6.14215C120.967 4.45459 122.881 3.13165 124.924 2.17334C127.648 0.783661 130.732 0 134 0C139.595 0 144.653 2.29745 148.283 6.00046C148.331 6.04742 148.379 6.0946 148.426 6.14215L261.563 119.279C269.374 127.09 269.374 139.753 261.563 147.563C253.753 155.374 241.09 155.374 233.279 147.563L154 68.2843V480C154 491.046 145.046 500 134 500C122.954 500 114 491.046 114 480V67.9899Z" fill="#EEEEEE"/>
</svg>
