<svg width="366" height="366" viewBox="0 0 366 366" fill="none" xmlns="http://www.w3.org/2000/svg">
<path fill-rule="evenodd" clip-rule="evenodd" d="M325.592 297.663L325.591 185.128C325.591 174.083 334.546 165.128 345.592 165.128C356.637 165.128 365.592 174.083 365.592 185.128L365.591 345.128C365.591 347.515 365.174 349.804 364.407 351.926C363.463 354.835 361.836 357.57 359.525 359.881C355.569 363.837 350.368 365.789 345.183 365.738C345.116 365.738 345.049 365.739 344.981 365.739L184.981 365.739C173.936 365.739 164.981 356.784 164.981 345.739C164.981 334.693 173.936 325.739 184.981 325.739L297.099 325.739L5.97212 34.6117C-1.83837 26.8012 -1.83835 14.1378 5.97211 6.32738C13.7826 -1.48308 26.4459 -1.48311 34.2564 6.32738L325.592 297.663Z" fill="#181818"/>
</svg>
