<svg width="33" height="25" viewBox="0 0 33 25" fill="none" xmlns="http://www.w3.org/2000/svg">
<path id="Union" fill-rule="evenodd" clip-rule="evenodd" d="M0 4.75C0 2.12665 2.12665 0 4.75 0H17.25V12.5C17.25 15.9518 20.0382 18.75 23.5 18.75C26.9518 18.75 29.75 15.9518 29.75 12.5C29.75 9.04822 26.9518 6.25 23.5 6.25C22.3616 6.25 21.2943 6.55435 20.375 7.08614V0H28.125C30.7484 0 32.875 2.12665 32.875 4.75V20.25C32.875 22.8734 30.7484 25 28.125 25H6.25V17.9139C7.16929 18.4456 8.2366 18.75 9.375 18.75C12.8268 18.75 15.625 15.9518 15.625 12.5C15.625 9.04822 12.8268 6.25 9.375 6.25C5.92322 6.25 3.125 9.04822 3.125 12.5V24.7148C1.30191 24.0511 0 22.3026 0 20.25V4.75ZM12.375 12.5C12.375 14.2259 10.9759 15.625 9.25 15.625C7.52411 15.625 6.125 14.2259 6.125 12.5C6.125 10.7741 7.52411 9.375 9.25 9.375C10.9759 9.375 12.375 10.7741 12.375 12.5ZM23.5 15.625C25.2259 15.625 26.625 14.2259 26.625 12.5C26.625 10.7741 25.2259 9.375 23.5 9.375C21.7741 9.375 20.375 10.7741 20.375 12.5C20.375 14.2259 21.7741 15.625 23.5 15.625Z" fill="#181818"/>
</svg>
