<svg width="18" height="18" viewBox="0 0 18 18" fill="none" xmlns="http://www.w3.org/2000/svg">
<path d="M12.9179 11.1989C12.8225 11.1035 12.7622 10.9729 12.7622 10.8223L12.7622 5.25768L7.19762 5.25768C6.90633 5.25768 6.66527 5.01661 6.66527 4.72532C6.66525 4.43405 6.90631 4.19298 7.1976 4.19298L13.2946 4.19296C13.5859 4.19296 13.8269 4.43403 13.8269 4.72532L13.8269 10.8223C13.8269 11.1136 13.5859 11.3547 13.2946 11.3546C13.1489 11.3597 13.0133 11.2944 12.9179 11.1989Z" fill="#292D32"/>
<path d="M4.37992 13.6403C4.17401 13.4343 4.17401 13.0928 4.37992 12.8869L12.8323 4.43453C13.0382 4.22862 13.3797 4.22862 13.5857 4.43453C13.7916 4.64044 13.7916 4.98195 13.5857 5.18786L5.13325 13.6403C4.92734 13.8462 4.58583 13.8462 4.37992 13.6403Z" fill="#292D32"/>
</svg>
